<?xml version="1.0" ?><svg data-name="Layer 1" id="Layer_1" viewBox="0 0 512 512" xmlns="http://www.w3.org/2000/svg"><path d="M224.66,105.25c.22,0,22.88,4,63.78,38.88,17.16,14.64,42.77,22.93,67.81,22.93A103.91,103.91,0,0,0,381,164.17c19.44-4.78,33.16-14.9,38.63-28.51a5.5,5.5,0,0,0-10.21-4.1c-4.12,10.23-15.14,18-31.05,21.92-28.33,7-62.35-.32-82.75-17.72-43.79-37.35-68.28-41.25-69.3-41.4a5.51,5.51,0,0,0-1.62,10.89Z"/><path d="M97.45,111.87c.74,0,73.93,1.35,117.69,42.94,47.14,44.81,88.53,73.94,130.45,73.94,23.6,0,47.37-9.23,72.42-30.09a5.5,5.5,0,1,0-7-8.46c-56.12,46.74-105.39,35.38-188.25-43.36-46.86-44.54-122-45.94-125.14-46h-.07a5.5,5.5,0,0,0-.06,11Z"/><path d="M411,281.37c-1.22,1-30.38,23.68-75.52,9-36.15-11.74-63.4-34.51-94.95-60.87-10.06-8.41-20.57-17.19-32-26.13-59.08-46.34-110.26-34.49-112.41-34a5.5,5.5,0,1,0,2.63,10.68c.47-.1,48.08-11.15,103,31.93,11.29,8.86,21.71,17.58,31.7,25.92,32.42,27.09,60.42,50.49,98.6,62.88a107.25,107.25,0,0,0,33.23,5.46c31.88,0,51.53-15.53,52.6-16.39a5.5,5.5,0,0,0-6.91-8.56Z"/><path d="M412.59,338.14c-88.42,32.4-134.12-.84-198.89-59.46C160.09,230.15,99,242.35,96.38,242.89a5.5,5.5,0,1,0,2.27,10.77c.58-.11,58.17-11.62,107.66,33.18,42.19,38.19,82.6,74.77,143.08,74.77,19.9,0,42-4,67-13.14a5.5,5.5,0,0,0-3.79-10.33Z"/><path d="M410.15,395.06c-112.36,34.05-163.68-13.79-204.92-52.21-6-5.56-11.7-10.91-17.34-15.75-46.43-39.89-89.54-32.61-91.36-32.29a5.5,5.5,0,0,0,2,10.83c.39-.06,40-6.5,82.24,29.81,5.54,4.75,11.16,10,17,15.45,31.35,29.22,71.56,66.7,141.68,66.69,21.6,0,46-3.55,73.93-12a5.5,5.5,0,1,0-3.19-10.53Z"/><path d="M190.1,406.72c-1.16-.39-9.28-3.85-31.43-29-29.38-33.4-60.36-31.13-61.63-31a5.5,5.5,0,1,0,.95,11c.28,0,26.67-2,52.41,27.29C163.65,400,181,417.7,189.61,417.7a6.13,6.13,0,0,0,.62,0,5.5,5.5,0,0,0-.13-10.95Z"/></svg>